<svg width="512" height="512" viewBox="0 0 512 512" fill="none" xmlns="http://www.w3.org/2000/svg">
    <path
        d="M461.5 31.85C456.5 33.05 451.1 35.25 445.1 38.25C433.1 44.25 418.4 53.55 403 64.35C376.3 83.05 347.5 106.1 328 124.3L367.8 144.2L387.7 184C405.9 164.5 428.9 135.7 447.6 109C458.4 93.65 467.7 78.95 473.8 66.85C476.8 60.85 479 55.55 480.1 50.55C481.3 45.55 482 39.65 477.2 34.85C472.4 30.29 467.2 30.6 461.5 31.85ZM446.7 65.25C451.6 69.96 452.3 77.35 450.5 83.95C448.7 90.55 444.4 97.25 437.6 104.1L395.4 146.3L365.8 116.6L408 74.45C414.8 67.65 421.5 63.39 428.1 61.55C434.2 59.84 442.4 61.11 446.7 65.25ZM183.2 109.5L161.9 130.7L207.5 135.7V109.5H183.2ZM313.1 134.7L269.6 156.5L116.6 356.6L130.3 370.4L227.8 272.9L239.1 284.2C206.6 316.7 174.1 349.3 141.6 381.8L155.4 395.4L355.5 242.4L377.3 198.9L355.9 156.1L313.1 134.7ZM56.51 135.1L63.91 157.3L184.9 240.8L249.4 156.5L56.51 135.1ZM94.61 197.9L81.51 211.1L105.9 235.4L123.5 217.9L94.61 197.9ZM355.5 262.6L271.2 327.1L354.7 448.1L376.9 455.4L355.5 262.6ZM164.6 267.4L53.61 276.5L31.01 299.1L113.4 334.5L164.6 267.4ZM376.7 308.6L381.3 350.1L398.4 332.9V308.6H376.7ZM244.6 347.4L177.6 398.6L212.9 481L235.5 458.4L244.6 347.4ZM105.9 368.6L92.81 381.7L130.3 419.1L143.4 406.1L105.9 368.6ZM294.1 388.5L276.6 406.1L300.9 430.4L314.1 417.3L294.1 388.5Z"
        fill="white" />
</svg>