<?xml version="1.0" standalone="no"?>
<!DOCTYPE svg PUBLIC "-//W3C//DTD SVG 20010904//EN"
 "http://www.w3.org/TR/2001/REC-SVG-20010904/DTD/svg10.dtd">
<svg version="1.0" xmlns="http://www.w3.org/2000/svg"
 width="512.000000pt" height="512.000000pt" viewBox="0 0 512.000000 512.000000"
 preserveAspectRatio="xMidYMid meet">

<g transform="translate(0.000000,512.000000) scale(0.100000,-0.100000)"
fill="#000000" stroke="none">
<path d="M2305 5070 c-315 -39 -586 -120 -855 -254 -116 -58 -304 -172 -371
-226 -478 -384 -755 -773 -916 -1285 -81 -257 -113 -470 -113 -745 0 -278 37
-511 122 -765 133 -397 314 -695 599 -986 414 -421 917 -673 1489 -745 197
-24 523 -16 715 20 260 47 452 109 668 214 234 114 379 214 613 420 371 326
661 831 768 1338 30 142 56 377 56 501 0 533 -188 1077 -525 1523 -90 120
-324 359 -435 445 -41 33 -77 62 -80 66 -6 7 -168 115 -220 146 -264 156 -557
262 -860 314 -140 23 -528 35 -655 19z m567 -415 c326 -52 584 -155 858 -343
501 -343 837 -873 925 -1458 73 -484 -42 -997 -320 -1424 -249 -384 -631 -691
-1065 -853 -348 -130 -741 -160 -1120 -86 -125 25 -344 96 -455 148 -93 43
-257 141 -359 214 -282 200 -530 491 -676 792 -144 298 -210 585 -210 913 1
378 87 702 277 1038 301 533 828 920 1417 1039 68 14 171 29 228 34 131 12
379 5 500 -14z"/>
<path d="M2521 4351 c-52 -80 -128 -241 -150 -316 -11 -38 -25 -108 -30 -154
-7 -52 -17 -91 -27 -103 -10 -10 -85 -70 -168 -135 -224 -173 -206 -151 -206
-254 0 -48 3 -90 8 -92 4 -3 69 33 146 79 76 46 143 84 148 84 7 0 8 -15 4
-37 -3 -21 -6 -84 -6 -140 0 -96 -1 -103 -20 -103 -19 0 -20 -7 -20 -98 l0
-99 -96 -69 c-53 -38 -111 -80 -128 -94 -44 -37 -422 -309 -513 -370 -59 -40
-326 -234 -338 -246 -7 -8 -16 -14 -19 -14 -3 0 -6 72 -6 159 0 157 0 160 -26
190 -32 38 -66 40 -99 6 l-25 -24 0 -364 c0 -353 1 -365 21 -391 21 -27 56
-34 89 -16 25 13 40 62 40 131 l0 59 560 0 560 0 0 -187 0 -188 -147 -115
c-81 -63 -162 -128 -181 -145 l-34 -29 4 -98 c3 -54 8 -101 11 -104 3 -3 101
10 219 28 l213 34 3 56 3 55 192 7 c106 4 219 4 250 0 l57 -7 0 -53 c0 -42 4
-54 18 -58 44 -13 414 -67 420 -61 3 3 8 50 10 104 l4 97 -143 112 c-79 62
-163 127 -186 145 l-42 32 -1 188 0 187 558 -2 557 -3 8 -80 c6 -62 13 -84 29
-97 28 -25 70 -22 96 5 22 23 22 27 22 391 l0 367 -25 24 c-30 30 -54 31 -89
4 l-26 -20 0 -165 c0 -94 -4 -164 -9 -164 -5 0 -76 48 -158 107 -81 58 -211
151 -288 206 -424 303 -603 433 -632 460 -21 18 -23 30 -23 114 0 74 -3 93
-14 93 -12 0 -15 26 -18 138 -2 75 -2 139 -1 141 1 2 36 -18 78 -43 42 -25 78
-46 81 -46 3 0 32 -18 65 -40 33 -23 64 -38 69 -35 15 9 13 168 -2 186 -7 9
-33 31 -58 51 -167 129 -291 231 -309 254 -14 18 -21 41 -21 69 0 62 -42 218
-84 310 -40 88 -126 235 -137 235 -4 0 -21 -22 -38 -49z m84 -732 c53 -15 91
-43 121 -90 55 -87 54 -73 54 -1110 l0 -958 -26 -20 c-34 -27 -40 -26 -69 5
l-25 27 -2 984 -3 985 -33 29 c-20 18 -43 29 -62 29 -41 0 -89 -45 -100 -95
-6 -23 -10 -447 -10 -992 l0 -952 -26 -20 c-35 -28 -48 -26 -74 6 l-21 27 3
965 c4 1104 -2 1036 88 1123 44 42 62 51 140 67 3 0 23 -4 45 -10z m-961
-1370 c19 -15 26 -30 26 -54 0 -36 -36 -75 -70 -75 -10 0 -29 9 -44 21 -33 26
-35 73 -4 106 27 29 57 29 92 2z m1910 0 c18 -14 26 -30 26 -52 0 -38 -7 -50
-37 -66 -33 -17 -51 -14 -78 14 -30 30 -32 64 -4 99 25 31 57 33 93 5z"/>
<path d="M2402 1088 c13 -59 34 -88 63 -88 17 0 26 -7 29 -22 3 -13 15 -78 27
-145 18 -102 25 -123 39 -123 18 0 27 38 58 235 7 45 10 50 37 55 24 4 33 14
47 50 32 84 39 80 -146 80 l-164 0 10 -42z"/>
</g>
</svg>
